<svg xmlns="http://www.w3.org/2000/svg" xmlns:xlink="http://www.w3.org/1999/xlink" width="3241" zoomAndPan="magnify" viewBox="0 0 2430.75 810.749993" height="1081" preserveAspectRatio="xMidYMid meet" version="1.0"><defs><g/><clipPath id="775daa4ad8"><path d="M 1 0 L 764 0 L 764 810.5 L 1 810.5 Z M 1 0 " clip-rule="nonzero"/></clipPath></defs><g clip-path="url(#775daa4ad8)"><path fill="#ffffff" d="M 185.023438 793.847656 L 244.914062 793.847656 L 244.914062 412.910156 L 185.023438 378.402344 Z M 502.75 793.847656 L 502.75 640.394531 L 579.359375 596.226562 L 579.359375 159.664062 L 352.238281 28.796875 L 352.238281 455.535156 L 428.867188 499.703125 L 428.867188 810.570312 L 335.519531 810.570312 L 335.519531 465.121094 L 261.632812 422.550781 L 261.632812 810.570312 L 168.285156 810.570312 L 168.285156 349.535156 L 244.914062 393.6875 L 244.914062 221.535156 L 17.773438 352.421875 L 17.773438 810.570312 L 1.054688 810.570312 L 1.054688 342.835938 L 261.632812 192.667969 L 261.632812 403.324219 L 335.519531 445.894531 L 335.519531 -0.0703125 L 596.097656 150.097656 L 596.097656 586.605469 L 763.332031 490.226562 L 763.332031 810.570312 L 746.609375 810.570312 L 746.609375 519.09375 L 596.097656 605.8125 L 596.097656 810.570312 L 502.75 810.570312 Z M 579.359375 615.46875 L 519.472656 649.980469 L 519.472656 793.847656 L 579.359375 793.847656 Z M 352.238281 474.761719 L 352.238281 793.847656 L 412.144531 793.847656 L 412.144531 509.289062 L 352.238281 474.761719 " fill-opacity="1" fill-rule="evenodd"/></g><g fill="#ffffff" fill-opacity="1"><g transform="translate(609.743003, 445.159937)"><g><path d="M 93.953125 1.796875 C 78.222656 1.796875 64.023438 -1.6875 51.359375 -8.65625 C 38.691406 -15.625 28.757812 -25.210938 21.5625 -37.421875 C 14.375 -49.628906 10.78125 -63.378906 10.78125 -78.671875 C 10.78125 -93.953125 14.375 -107.695312 21.5625 -119.90625 C 28.757812 -132.125 38.726562 -141.71875 51.46875 -148.6875 C 64.207031 -155.65625 78.441406 -159.140625 94.171875 -159.140625 C 106.460938 -159.140625 117.703125 -157.078125 127.890625 -152.953125 C 138.078125 -148.828125 146.769531 -142.722656 153.96875 -134.640625 L 139.359375 -120.46875 C 127.515625 -132.90625 112.753906 -139.125 95.078125 -139.125 C 83.390625 -139.125 72.820312 -136.5 63.375 -131.25 C 53.9375 -126.007812 46.554688 -118.78125 41.234375 -109.5625 C 35.921875 -100.351562 33.265625 -90.054688 33.265625 -78.671875 C 33.265625 -67.273438 35.921875 -56.96875 41.234375 -47.75 C 46.554688 -38.539062 53.9375 -31.3125 63.375 -26.0625 C 72.820312 -20.820312 83.390625 -18.203125 95.078125 -18.203125 C 112.609375 -18.203125 127.367188 -24.5 139.359375 -37.09375 L 153.96875 -22.921875 C 146.769531 -14.828125 138.035156 -8.679688 127.765625 -4.484375 C 117.503906 -0.296875 106.234375 1.796875 93.953125 1.796875 Z M 93.953125 1.796875 "/></g></g></g><g fill="#ffffff" fill-opacity="1"><g transform="translate(770.225415, 445.159937)"><g><path d="M 71.46875 1.34375 C 59.632812 1.34375 49 -1.273438 39.5625 -6.515625 C 30.125 -11.765625 22.742188 -18.992188 17.421875 -28.203125 C 12.097656 -37.421875 9.4375 -47.875 9.4375 -59.5625 C 9.4375 -71.25 12.097656 -81.695312 17.421875 -90.90625 C 22.742188 -100.125 30.125 -107.316406 39.5625 -112.484375 C 49 -117.660156 59.632812 -120.25 71.46875 -120.25 C 83.3125 -120.25 93.914062 -117.660156 103.28125 -112.484375 C 112.644531 -107.316406 119.984375 -100.125 125.296875 -90.90625 C 130.617188 -81.695312 133.28125 -71.25 133.28125 -59.5625 C 133.28125 -47.875 130.617188 -37.421875 125.296875 -28.203125 C 119.984375 -18.992188 112.644531 -11.765625 103.28125 -6.515625 C 93.914062 -1.273438 83.3125 1.34375 71.46875 1.34375 Z M 71.46875 -17.53125 C 79.113281 -17.53125 85.96875 -19.289062 92.03125 -22.8125 C 98.101562 -26.332031 102.863281 -31.273438 106.3125 -37.640625 C 109.757812 -44.015625 111.484375 -51.320312 111.484375 -59.5625 C 111.484375 -67.800781 109.757812 -75.101562 106.3125 -81.46875 C 102.863281 -87.84375 98.101562 -92.753906 92.03125 -96.203125 C 85.96875 -99.648438 79.113281 -101.375 71.46875 -101.375 C 63.832031 -101.375 56.976562 -99.648438 50.90625 -96.203125 C 44.84375 -92.753906 40.050781 -87.84375 36.53125 -81.46875 C 33.007812 -75.101562 31.25 -67.800781 31.25 -59.5625 C 31.25 -51.320312 33.007812 -44.015625 36.53125 -37.640625 C 40.050781 -31.273438 44.84375 -26.332031 50.90625 -22.8125 C 56.976562 -19.289062 63.832031 -17.53125 71.46875 -17.53125 Z M 71.46875 -17.53125 "/></g></g></g><g fill="#ffffff" fill-opacity="1"><g transform="translate(910.928491, 445.159937)"><g><path d="M 84.0625 -120.25 C 99.195312 -120.25 111.222656 -115.863281 120.140625 -107.09375 C 129.054688 -98.332031 133.515625 -85.484375 133.515625 -68.546875 L 133.515625 0 L 111.9375 0 L 111.9375 -66.078125 C 111.9375 -77.617188 109.160156 -86.3125 103.609375 -92.15625 C 98.066406 -98 90.128906 -100.921875 79.796875 -100.921875 C 68.109375 -100.921875 58.890625 -97.507812 52.140625 -90.6875 C 45.398438 -83.875 42.03125 -74.097656 42.03125 -61.359375 L 42.03125 0 L 20.453125 0 L 20.453125 -119.125 L 41.125 -119.125 L 41.125 -101.140625 C 45.476562 -107.285156 51.363281 -112.003906 58.78125 -115.296875 C 66.195312 -118.597656 74.625 -120.25 84.0625 -120.25 Z M 84.0625 -120.25 "/></g></g></g><g fill="#ffffff" fill-opacity="1"><g transform="translate(1061.970721, 445.159937)"><g><path d="M 132.84375 -166.78125 L 132.84375 0 L 112.15625 0 L 112.15625 -18.875 C 107.363281 -12.28125 101.296875 -7.257812 93.953125 -3.8125 C 86.609375 -0.375 78.515625 1.34375 69.671875 1.34375 C 58.140625 1.34375 47.800781 -1.203125 38.65625 -6.296875 C 29.519531 -11.390625 22.363281 -18.539062 17.1875 -27.75 C 12.019531 -36.96875 9.4375 -47.570312 9.4375 -59.5625 C 9.4375 -71.550781 12.019531 -82.113281 17.1875 -91.25 C 22.363281 -100.394531 29.519531 -107.515625 38.65625 -112.609375 C 47.800781 -117.703125 58.140625 -120.25 69.671875 -120.25 C 78.210938 -120.25 86.078125 -118.632812 93.265625 -115.40625 C 100.460938 -112.1875 106.460938 -107.429688 111.265625 -101.140625 L 111.265625 -166.78125 Z M 71.46875 -17.53125 C 78.96875 -17.53125 85.785156 -19.289062 91.921875 -22.8125 C 98.066406 -26.332031 102.863281 -31.273438 106.3125 -37.640625 C 109.757812 -44.015625 111.484375 -51.320312 111.484375 -59.5625 C 111.484375 -67.800781 109.757812 -75.101562 106.3125 -81.46875 C 102.863281 -87.84375 98.066406 -92.753906 91.921875 -96.203125 C 85.785156 -99.648438 78.96875 -101.375 71.46875 -101.375 C 63.832031 -101.375 56.976562 -99.648438 50.90625 -96.203125 C 44.84375 -92.753906 40.050781 -87.84375 36.53125 -81.46875 C 33.007812 -75.101562 31.25 -67.800781 31.25 -59.5625 C 31.25 -51.320312 33.007812 -44.015625 36.53125 -37.640625 C 40.050781 -31.273438 44.84375 -26.332031 50.90625 -22.8125 C 56.976562 -19.289062 63.832031 -17.53125 71.46875 -17.53125 Z M 71.46875 -17.53125 "/></g></g></g><g fill="#ffffff" fill-opacity="1"><g transform="translate(1213.237717, 445.159937)"><g><path d="M 71.46875 1.34375 C 59.632812 1.34375 49 -1.273438 39.5625 -6.515625 C 30.125 -11.765625 22.742188 -18.992188 17.421875 -28.203125 C 12.097656 -37.421875 9.4375 -47.875 9.4375 -59.5625 C 9.4375 -71.25 12.097656 -81.695312 17.421875 -90.90625 C 22.742188 -100.125 30.125 -107.316406 39.5625 -112.484375 C 49 -117.660156 59.632812 -120.25 71.46875 -120.25 C 83.3125 -120.25 93.914062 -117.660156 103.28125 -112.484375 C 112.644531 -107.316406 119.984375 -100.125 125.296875 -90.90625 C 130.617188 -81.695312 133.28125 -71.25 133.28125 -59.5625 C 133.28125 -47.875 130.617188 -37.421875 125.296875 -28.203125 C 119.984375 -18.992188 112.644531 -11.765625 103.28125 -6.515625 C 93.914062 -1.273438 83.3125 1.34375 71.46875 1.34375 Z M 71.46875 -17.53125 C 79.113281 -17.53125 85.96875 -19.289062 92.03125 -22.8125 C 98.101562 -26.332031 102.863281 -31.273438 106.3125 -37.640625 C 109.757812 -44.015625 111.484375 -51.320312 111.484375 -59.5625 C 111.484375 -67.800781 109.757812 -75.101562 106.3125 -81.46875 C 102.863281 -87.84375 98.101562 -92.753906 92.03125 -96.203125 C 85.96875 -99.648438 79.113281 -101.375 71.46875 -101.375 C 63.832031 -101.375 56.976562 -99.648438 50.90625 -96.203125 C 44.84375 -92.753906 40.050781 -87.84375 36.53125 -81.46875 C 33.007812 -75.101562 31.25 -67.800781 31.25 -59.5625 C 31.25 -51.320312 33.007812 -44.015625 36.53125 -37.640625 C 40.050781 -31.273438 44.84375 -26.332031 50.90625 -22.8125 C 56.976562 -19.289062 63.832031 -17.53125 71.46875 -17.53125 Z M 71.46875 -17.53125 "/></g></g></g><g fill="#ffffff" fill-opacity="1"><g transform="translate(1353.940815, 445.159937)"><g><path d="M 169.46875 -120.25 C 184.457031 -120.25 196.332031 -115.898438 205.09375 -107.203125 C 213.863281 -98.515625 218.25 -85.628906 218.25 -68.546875 L 218.25 0 L 196.671875 0 L 196.671875 -66.078125 C 196.671875 -77.617188 194.007812 -86.3125 188.6875 -92.15625 C 183.375 -98 175.769531 -100.921875 165.875 -100.921875 C 154.9375 -100.921875 146.242188 -97.507812 139.796875 -90.6875 C 133.359375 -83.875 130.140625 -74.097656 130.140625 -61.359375 L 130.140625 0 L 108.5625 0 L 108.5625 -66.078125 C 108.5625 -77.617188 105.898438 -86.3125 100.578125 -92.15625 C 95.265625 -98 87.660156 -100.921875 77.765625 -100.921875 C 66.828125 -100.921875 58.132812 -97.507812 51.6875 -90.6875 C 45.25 -83.875 42.03125 -74.097656 42.03125 -61.359375 L 42.03125 0 L 20.453125 0 L 20.453125 -119.125 L 41.125 -119.125 L 41.125 -101.375 C 45.476562 -107.507812 51.175781 -112.1875 58.21875 -115.40625 C 65.257812 -118.632812 73.273438 -120.25 82.265625 -120.25 C 91.554688 -120.25 99.796875 -118.375 106.984375 -114.625 C 114.179688 -110.882812 119.726562 -105.414062 123.625 -98.21875 C 128.113281 -105.113281 134.363281 -110.507812 142.375 -114.40625 C 150.394531 -118.300781 159.425781 -120.25 169.46875 -120.25 Z M 169.46875 -120.25 "/></g></g></g><g fill="#ffffff" fill-opacity="1"><g transform="translate(1589.494829, 445.159937)"><g><path d="M 20.453125 -119.125 L 42.03125 -119.125 L 42.03125 0 L 20.453125 0 Z M 31.25 -142.046875 C 27.050781 -142.046875 23.5625 -143.394531 20.78125 -146.09375 C 18.007812 -148.789062 16.625 -152.085938 16.625 -155.984375 C 16.625 -159.878906 18.007812 -163.210938 20.78125 -165.984375 C 23.5625 -168.753906 27.050781 -170.140625 31.25 -170.140625 C 35.4375 -170.140625 38.914062 -168.828125 41.6875 -166.203125 C 44.46875 -163.585938 45.859375 -160.332031 45.859375 -156.4375 C 45.859375 -152.394531 44.46875 -148.984375 41.6875 -146.203125 C 38.914062 -143.429688 35.4375 -142.046875 31.25 -142.046875 Z M 31.25 -142.046875 "/></g></g></g><g fill="#ffffff" fill-opacity="1"><g transform="translate(1650.181435, 445.159937)"><g><path d="M 84.0625 -120.25 C 99.195312 -120.25 111.222656 -115.863281 120.140625 -107.09375 C 129.054688 -98.332031 133.515625 -85.484375 133.515625 -68.546875 L 133.515625 0 L 111.9375 0 L 111.9375 -66.078125 C 111.9375 -77.617188 109.160156 -86.3125 103.609375 -92.15625 C 98.066406 -98 90.128906 -100.921875 79.796875 -100.921875 C 68.109375 -100.921875 58.890625 -97.507812 52.140625 -90.6875 C 45.398438 -83.875 42.03125 -74.097656 42.03125 -61.359375 L 42.03125 0 L 20.453125 0 L 20.453125 -119.125 L 41.125 -119.125 L 41.125 -101.140625 C 45.476562 -107.285156 51.363281 -112.003906 58.78125 -115.296875 C 66.195312 -118.597656 74.625 -120.25 84.0625 -120.25 Z M 84.0625 -120.25 "/></g></g></g><g fill="#ffffff" fill-opacity="1"><g transform="translate(1801.223688, 445.159937)"><g><path d="M 20.453125 -119.125 L 42.03125 -119.125 L 42.03125 0 L 20.453125 0 Z M 31.25 -142.046875 C 27.050781 -142.046875 23.5625 -143.394531 20.78125 -146.09375 C 18.007812 -148.789062 16.625 -152.085938 16.625 -155.984375 C 16.625 -159.878906 18.007812 -163.210938 20.78125 -165.984375 C 23.5625 -168.753906 27.050781 -170.140625 31.25 -170.140625 C 35.4375 -170.140625 38.914062 -168.828125 41.6875 -166.203125 C 44.46875 -163.585938 45.859375 -160.332031 45.859375 -156.4375 C 45.859375 -152.394531 44.46875 -148.984375 41.6875 -146.203125 C 38.914062 -143.429688 35.4375 -142.046875 31.25 -142.046875 Z M 31.25 -142.046875 "/></g></g></g><g fill="#ffffff" fill-opacity="1"><g transform="translate(1861.910294, 445.159937)"><g><path d="M 71.46875 1.34375 C 59.632812 1.34375 49 -1.273438 39.5625 -6.515625 C 30.125 -11.765625 22.742188 -18.992188 17.421875 -28.203125 C 12.097656 -37.421875 9.4375 -47.875 9.4375 -59.5625 C 9.4375 -71.25 12.097656 -81.695312 17.421875 -90.90625 C 22.742188 -100.125 30.125 -107.316406 39.5625 -112.484375 C 49 -117.660156 59.632812 -120.25 71.46875 -120.25 C 83.3125 -120.25 93.914062 -117.660156 103.28125 -112.484375 C 112.644531 -107.316406 119.984375 -100.125 125.296875 -90.90625 C 130.617188 -81.695312 133.28125 -71.25 133.28125 -59.5625 C 133.28125 -47.875 130.617188 -37.421875 125.296875 -28.203125 C 119.984375 -18.992188 112.644531 -11.765625 103.28125 -6.515625 C 93.914062 -1.273438 83.3125 1.34375 71.46875 1.34375 Z M 71.46875 -17.53125 C 79.113281 -17.53125 85.96875 -19.289062 92.03125 -22.8125 C 98.101562 -26.332031 102.863281 -31.273438 106.3125 -37.640625 C 109.757812 -44.015625 111.484375 -51.320312 111.484375 -59.5625 C 111.484375 -67.800781 109.757812 -75.101562 106.3125 -81.46875 C 102.863281 -87.84375 98.101562 -92.753906 92.03125 -96.203125 C 85.96875 -99.648438 79.113281 -101.375 71.46875 -101.375 C 63.832031 -101.375 56.976562 -99.648438 50.90625 -96.203125 C 44.84375 -92.753906 40.050781 -87.84375 36.53125 -81.46875 C 33.007812 -75.101562 31.25 -67.800781 31.25 -59.5625 C 31.25 -51.320312 33.007812 -44.015625 36.53125 -37.640625 C 40.050781 -31.273438 44.84375 -26.332031 50.90625 -22.8125 C 56.976562 -19.289062 63.832031 -17.53125 71.46875 -17.53125 Z M 71.46875 -17.53125 "/></g></g></g><g fill="#ffffff" fill-opacity="1"><g transform="translate(2002.613303, 445.159937)"><g><path d="M 71.03125 -91.25 C 86.457031 -89.75 98.21875 -84.988281 106.3125 -76.96875 C 114.40625 -68.957031 118.453125 -58.734375 118.453125 -46.296875 C 118.453125 -37.304688 116.203125 -29.175781 111.703125 -21.90625 C 107.210938 -14.644531 100.507812 -8.878906 91.59375 -4.609375 C 82.675781 -0.335938 71.773438 1.796875 58.890625 1.796875 C 47.648438 1.796875 36.859375 0.113281 26.515625 -3.25 C 16.179688 -6.625 7.71875 -11.3125 1.125 -17.3125 L 11.46875 -35.0625 C 16.851562 -29.96875 23.742188 -25.882812 32.140625 -22.8125 C 40.535156 -19.738281 49.453125 -18.203125 58.890625 -18.203125 C 70.578125 -18.203125 79.675781 -20.675781 86.1875 -25.625 C 92.707031 -30.570312 95.96875 -37.390625 95.96875 -46.078125 C 95.96875 -54.765625 92.742188 -61.503906 86.296875 -66.296875 C 79.859375 -71.097656 70.125 -73.5 57.09375 -73.5 L 44.5 -73.5 L 44.5 -89.234375 L 84.0625 -137.78125 L 8.3125 -137.78125 L 8.3125 -157.328125 L 112.15625 -157.328125 L 112.15625 -142.046875 Z M 71.03125 -91.25 "/></g></g></g><g fill="#ffffff" fill-opacity="1"><g transform="translate(2129.156186, 445.159937)"><g><path d="M 78.671875 -95.53125 C 89.003906 -95.53125 98.253906 -93.582031 106.421875 -89.6875 C 114.585938 -85.789062 120.992188 -80.207031 125.640625 -72.9375 C 130.285156 -65.664062 132.609375 -57.3125 132.609375 -47.875 C 132.609375 -37.988281 130.171875 -29.296875 125.296875 -21.796875 C 120.429688 -14.304688 113.765625 -8.5 105.296875 -4.375 C 96.835938 -0.257812 87.363281 1.796875 76.875 1.796875 C 55.738281 1.796875 39.4375 -5.019531 27.96875 -18.65625 C 16.507812 -32.289062 10.78125 -51.617188 10.78125 -76.640625 C 10.78125 -94.171875 13.890625 -109.117188 20.109375 -121.484375 C 26.328125 -133.847656 35.019531 -143.210938 46.1875 -149.578125 C 57.351562 -155.953125 70.351562 -159.140625 85.1875 -159.140625 C 92.832031 -159.140625 100.023438 -158.347656 106.765625 -156.765625 C 113.503906 -155.191406 119.347656 -152.910156 124.296875 -149.921875 L 115.75 -132.390625 C 108.257812 -137.328125 98.222656 -139.796875 85.640625 -139.796875 C 69.304688 -139.796875 56.492188 -134.738281 47.203125 -124.625 C 37.910156 -114.507812 33.265625 -99.789062 33.265625 -80.46875 C 33.265625 -78.070312 33.335938 -76.195312 33.484375 -74.84375 C 37.984375 -81.59375 44.164062 -86.726562 52.03125 -90.25 C 59.894531 -93.769531 68.773438 -95.53125 78.671875 -95.53125 Z M 75.96875 -16.40625 C 86.3125 -16.40625 94.703125 -19.175781 101.140625 -24.71875 C 107.585938 -30.269531 110.8125 -37.6875 110.8125 -46.96875 C 110.8125 -56.257812 107.550781 -63.640625 101.03125 -69.109375 C 94.507812 -74.578125 85.78125 -77.3125 74.84375 -77.3125 C 67.800781 -77.3125 61.546875 -75.960938 56.078125 -73.265625 C 50.609375 -70.578125 46.335938 -66.910156 43.265625 -62.265625 C 40.191406 -57.617188 38.65625 -52.445312 38.65625 -46.75 C 38.65625 -41.207031 40.113281 -36.148438 43.03125 -31.578125 C 45.957031 -27.003906 50.226562 -23.332031 55.84375 -20.5625 C 61.46875 -17.789062 68.175781 -16.40625 75.96875 -16.40625 Z M 75.96875 -16.40625 "/></g></g></g><g fill="#ffffff" fill-opacity="1"><g transform="translate(2265.813443, 445.159937)"><g><path d="M 75.078125 1.796875 C 62.640625 1.796875 51.585938 -1.382812 41.921875 -7.75 C 32.253906 -14.125 24.644531 -23.378906 19.09375 -35.515625 C 13.550781 -47.648438 10.78125 -62.035156 10.78125 -78.671875 C 10.78125 -95.296875 13.550781 -109.675781 19.09375 -121.8125 C 24.644531 -133.957031 32.253906 -143.210938 41.921875 -149.578125 C 51.585938 -155.953125 62.640625 -159.140625 75.078125 -159.140625 C 87.359375 -159.140625 98.332031 -155.953125 108 -149.578125 C 117.664062 -143.210938 125.269531 -133.957031 130.8125 -121.8125 C 136.351562 -109.675781 139.125 -95.296875 139.125 -78.671875 C 139.125 -62.035156 136.351562 -47.648438 130.8125 -35.515625 C 125.269531 -23.378906 117.664062 -14.125 108 -7.75 C 98.332031 -1.382812 87.359375 1.796875 75.078125 1.796875 Z M 75.078125 -18.203125 C 87.660156 -18.203125 97.734375 -23.367188 105.296875 -33.703125 C 112.867188 -44.046875 116.65625 -59.035156 116.65625 -78.671875 C 116.65625 -98.296875 112.867188 -113.273438 105.296875 -123.609375 C 97.734375 -133.953125 87.660156 -139.125 75.078125 -139.125 C 62.335938 -139.125 52.179688 -133.953125 44.609375 -123.609375 C 37.046875 -113.273438 33.265625 -98.296875 33.265625 -78.671875 C 33.265625 -59.035156 37.046875 -44.046875 44.609375 -33.703125 C 52.179688 -23.367188 62.335938 -18.203125 75.078125 -18.203125 Z M 75.078125 -18.203125 "/></g></g></g><g fill="#ffffff" fill-opacity="1"><g transform="translate(1173.857364, 552.488117)"><g><path d="M 28.3125 -49.484375 C 32.03125 -49.484375 35.265625 -48.976562 38.015625 -47.96875 C 40.765625 -46.957031 42.890625 -45.507812 44.390625 -43.625 C 45.898438 -41.738281 46.65625 -39.523438 46.65625 -36.984375 C 46.65625 -34.398438 45.890625 -32.140625 44.359375 -30.203125 C 42.835938 -28.273438 40.757812 -26.960938 38.125 -26.265625 C 41.269531 -25.648438 43.75 -24.210938 45.5625 -21.953125 C 47.375 -19.691406 48.28125 -16.960938 48.28125 -13.765625 C 48.28125 -10.984375 47.503906 -8.546875 45.953125 -6.453125 C 44.398438 -4.359375 42.1875 -2.757812 39.3125 -1.65625 C 36.445312 -0.550781 33.082031 0 29.21875 0 L 4.796875 0 L 4.796875 -49.484375 Z M 27.609375 -29.796875 C 29.390625 -29.796875 30.796875 -30.226562 31.828125 -31.09375 C 32.867188 -31.96875 33.390625 -33.179688 33.390625 -34.734375 C 33.390625 -36.234375 32.867188 -37.394531 31.828125 -38.21875 C 30.796875 -39.050781 29.390625 -39.441406 27.609375 -39.390625 L 17.71875 -39.390625 L 17.71875 -29.796875 Z M 27.609375 -10.03125 C 29.859375 -10.03125 31.640625 -10.5 32.953125 -11.4375 C 34.273438 -12.375 34.9375 -13.691406 34.9375 -15.390625 C 34.9375 -16.941406 34.273438 -18.175781 32.953125 -19.09375 C 31.640625 -20.007812 29.859375 -20.445312 27.609375 -20.40625 L 17.71875 -20.40625 L 17.71875 -10.03125 Z M 27.609375 -10.03125 "/></g></g></g><g fill="#ffffff" fill-opacity="1"><g transform="translate(1263.305581, 552.488117)"><g><path d="M 35.71875 -49.484375 L 48.640625 -49.484375 L 30.78125 -15.8125 L 30.78125 0 L 17.859375 0 L 17.859375 -15.453125 L -0.359375 -49.484375 L 12.5625 -49.484375 L 24.28125 -28.234375 Z M 35.71875 -49.484375 "/></g></g></g><g fill="#ffffff" fill-opacity="1"><g transform="translate(1350.494745, 552.488117)"><g/></g></g><g fill="#ffffff" fill-opacity="1"><g transform="translate(1408.457398, 552.488117)"><g><path d="M 54.921875 0 L 41.15625 0 L 37.765625 -8.75 L 16.375 -8.75 L 12.921875 0 L -0.359375 0 L 20.890625 -49.484375 L 34.171875 -49.484375 Z M 27.171875 -36.28125 L 20.265625 -18.640625 L 33.953125 -18.640625 Z M 27.171875 -36.28125 "/></g></g></g><g fill="#ffffff" fill-opacity="1"><g transform="translate(1501.929547, 552.488117)"><g><path d="M 49.140625 0 L 34.515625 0 L 27.3125 -13.6875 L 17.71875 -13.6875 L 17.71875 0 L 4.796875 0 L 4.796875 -49.484375 L 27.03125 -49.484375 C 33.570312 -49.484375 38.644531 -47.960938 42.25 -44.921875 C 45.851562 -41.890625 47.65625 -37.625 47.65625 -32.125 C 47.65625 -28.40625 46.898438 -25.191406 45.390625 -22.484375 C 43.890625 -19.773438 41.703125 -17.671875 38.828125 -16.171875 Z M 17.71875 -39.171875 L 17.71875 -24 L 27.109375 -24 C 29.742188 -24 31.78125 -24.65625 33.21875 -25.96875 C 34.65625 -27.289062 35.375 -29.203125 35.375 -31.703125 C 35.375 -34.097656 34.65625 -35.941406 33.21875 -37.234375 C 31.78125 -38.523438 29.742188 -39.171875 27.109375 -39.171875 Z M 17.71875 -39.171875 "/></g></g></g><g fill="#ffffff" fill-opacity="1"><g transform="translate(1591.942505, 552.488117)"><g><path d="M 38.890625 -34.59375 C 36.253906 -36.144531 33.441406 -37.414062 30.453125 -38.40625 C 27.472656 -39.394531 24.96875 -39.890625 22.9375 -39.890625 C 21.34375 -39.890625 20.085938 -39.59375 19.171875 -39 C 18.253906 -38.414062 17.796875 -37.554688 17.796875 -36.421875 C 17.796875 -35.335938 18.191406 -34.429688 18.984375 -33.703125 C 19.785156 -32.972656 20.773438 -32.382812 21.953125 -31.9375 C 23.128906 -31.488281 24.867188 -30.914062 27.171875 -30.21875 C 30.609375 -29.226562 33.441406 -28.238281 35.671875 -27.25 C 37.910156 -26.257812 39.832031 -24.738281 41.4375 -22.6875 C 43.039062 -20.644531 43.84375 -17.976562 43.84375 -14.6875 C 43.84375 -11.382812 42.96875 -8.566406 41.21875 -6.234375 C 39.476562 -3.910156 37.09375 -2.160156 34.0625 -0.984375 C 31.03125 0.191406 27.65625 0.78125 23.9375 0.78125 C 19.84375 0.78125 15.757812 0.0625 11.6875 -1.375 C 7.613281 -2.8125 4.09375 -4.773438 1.125 -7.265625 L 6.140625 -17.359375 C 8.640625 -15.148438 11.59375 -13.335938 15 -11.921875 C 18.414062 -10.515625 21.441406 -9.8125 24.078125 -9.8125 C 26.003906 -9.8125 27.519531 -10.164062 28.625 -10.875 C 29.726562 -11.582031 30.28125 -12.617188 30.28125 -13.984375 C 30.28125 -15.109375 29.867188 -16.046875 29.046875 -16.796875 C 28.222656 -17.554688 27.1875 -18.15625 25.9375 -18.59375 C 24.695312 -19.039062 22.945312 -19.570312 20.6875 -20.1875 C 17.289062 -21.132812 14.488281 -22.085938 12.28125 -23.046875 C 10.070312 -24.015625 8.175781 -25.472656 6.59375 -27.421875 C 5.019531 -29.378906 4.234375 -31.976562 4.234375 -35.21875 C 4.234375 -38.28125 5.046875 -40.960938 6.671875 -43.265625 C 8.296875 -45.578125 10.601562 -47.351562 13.59375 -48.59375 C 16.582031 -49.84375 20.050781 -50.46875 24 -50.46875 C 27.570312 -50.46875 31.097656 -49.960938 34.578125 -48.953125 C 38.066406 -47.941406 41.128906 -46.585938 43.765625 -44.890625 Z M 38.890625 -34.59375 "/></g></g></g><g fill="#ffffff" fill-opacity="1"><g transform="translate(1676.449051, 552.488117)"><g><path d="M 35.71875 -49.484375 L 48.640625 -49.484375 L 30.78125 -15.8125 L 30.78125 0 L 17.859375 0 L 17.859375 -15.453125 L -0.359375 -49.484375 L 12.5625 -49.484375 L 24.28125 -28.234375 Z M 35.71875 -49.484375 "/></g></g></g><g fill="#ffffff" fill-opacity="1"><g transform="translate(1763.638226, 552.488117)"><g><path d="M 38.890625 -34.59375 C 36.253906 -36.144531 33.441406 -37.414062 30.453125 -38.40625 C 27.472656 -39.394531 24.96875 -39.890625 22.9375 -39.890625 C 21.34375 -39.890625 20.085938 -39.59375 19.171875 -39 C 18.253906 -38.414062 17.796875 -37.554688 17.796875 -36.421875 C 17.796875 -35.335938 18.191406 -34.429688 18.984375 -33.703125 C 19.785156 -32.972656 20.773438 -32.382812 21.953125 -31.9375 C 23.128906 -31.488281 24.867188 -30.914062 27.171875 -30.21875 C 30.609375 -29.226562 33.441406 -28.238281 35.671875 -27.25 C 37.910156 -26.257812 39.832031 -24.738281 41.4375 -22.6875 C 43.039062 -20.644531 43.84375 -17.976562 43.84375 -14.6875 C 43.84375 -11.382812 42.96875 -8.566406 41.21875 -6.234375 C 39.476562 -3.910156 37.09375 -2.160156 34.0625 -0.984375 C 31.03125 0.191406 27.65625 0.78125 23.9375 0.78125 C 19.84375 0.78125 15.757812 0.0625 11.6875 -1.375 C 7.613281 -2.8125 4.09375 -4.773438 1.125 -7.265625 L 6.140625 -17.359375 C 8.640625 -15.148438 11.59375 -13.335938 15 -11.921875 C 18.414062 -10.515625 21.441406 -9.8125 24.078125 -9.8125 C 26.003906 -9.8125 27.519531 -10.164062 28.625 -10.875 C 29.726562 -11.582031 30.28125 -12.617188 30.28125 -13.984375 C 30.28125 -15.109375 29.867188 -16.046875 29.046875 -16.796875 C 28.222656 -17.554688 27.1875 -18.15625 25.9375 -18.59375 C 24.695312 -19.039062 22.945312 -19.570312 20.6875 -20.1875 C 17.289062 -21.132812 14.488281 -22.085938 12.28125 -23.046875 C 10.070312 -24.015625 8.175781 -25.472656 6.59375 -27.421875 C 5.019531 -29.378906 4.234375 -31.976562 4.234375 -35.21875 C 4.234375 -38.28125 5.046875 -40.960938 6.671875 -43.265625 C 8.296875 -45.578125 10.601562 -47.351562 13.59375 -48.59375 C 16.582031 -49.84375 20.050781 -50.46875 24 -50.46875 C 27.570312 -50.46875 31.097656 -49.960938 34.578125 -48.953125 C 38.066406 -47.941406 41.128906 -46.585938 43.765625 -44.890625 Z M 38.890625 -34.59375 "/></g></g></g><g fill="#ffffff" fill-opacity="1"><g transform="translate(1848.144771, 552.488117)"><g/></g></g><g fill="#ffffff" fill-opacity="1"><g transform="translate(1906.107425, 552.488117)"><g><path d="M 4.796875 0 L 4.796875 -49.484375 L 17.71875 -49.484375 L 17.71875 0 Z M 4.796875 0 "/></g></g></g><g fill="#ffffff" fill-opacity="1"><g transform="translate(1967.529248, 552.488117)"><g><path d="M 38.6875 -19.703125 L 38.609375 -49.484375 L 50.609375 -49.484375 L 50.609375 0 L 39.328125 0 L 16.875 -29.578125 L 16.875 0 L 4.796875 0 L 4.796875 -49.484375 L 16.171875 -49.484375 Z M 38.6875 -19.703125 "/></g></g></g><g fill="#ffffff" fill-opacity="1"><g transform="translate(2061.919113, 552.488117)"><g><path d="M 0.5 -38.828125 L 0.5 -49.484375 L 42.921875 -49.484375 L 42.921875 -38.828125 L 28.09375 -38.828125 L 28.09375 0 L 15.171875 0 L 15.171875 -38.828125 Z M 0.5 -38.828125 "/></g></g></g><g fill="#ffffff" fill-opacity="1"><g transform="translate(2144.166605, 552.488117)"><g><path d="M 4.796875 0 L 4.796875 -49.484375 L 43.84375 -49.484375 L 43.84375 -39.171875 L 17.71875 -39.171875 L 17.71875 -29.9375 L 41.296875 -29.9375 L 41.296875 -19.703125 L 17.71875 -19.625 L 17.71875 -10.3125 L 44.546875 -10.3125 L 44.546875 0 Z M 4.796875 0 "/></g></g></g><g fill="#ffffff" fill-opacity="1"><g transform="translate(2230.720417, 552.488117)"><g><path d="M 4.796875 0 L 4.796875 -49.484375 L 17.71875 -49.484375 L 17.71875 -11.015625 L 38.6875 -11.015625 L 38.6875 0 Z M 4.796875 0 "/></g></g></g><g fill="#ffffff" fill-opacity="1"><g transform="translate(2309.367518, 552.488117)"><g><path d="M 54.921875 0 L 41.15625 0 L 37.765625 -8.75 L 16.375 -8.75 L 12.921875 0 L -0.359375 0 L 20.890625 -49.484375 L 34.171875 -49.484375 Z M 27.171875 -36.28125 L 20.265625 -18.640625 L 33.953125 -18.640625 Z M 27.171875 -36.28125 "/></g></g></g></svg>